HIERARCHY
ROOT Hips
{
	OFFSET -0.179506 -22.333345 2.821913
	CHANNELS 6 Xposition Yposition Zposition Zrotation Yrotation Xrotation 
	JOINT LeftUpLeg
	{
		OFFSET 6.951974 -9.140623 -0.681533
		CHANNELS 3 Zrotation Yrotation Xrotation
		JOINT LeftLeg
		{
			OFFSET 3.427654 -37.519855 -0.449580
			CHANNELS 3 Zrotation Yrotation Xrotation
			JOINT LeftFoot
			{
				OFFSET -1.359570 -39.796059 -4.369333
				CHANNELS 3 Zrotation Yrotation Xrotation
				JOINT LeftToe
				{
					OFFSET 2.635814 -5.579078 11.928840
					CHANNELS 3 Zrotation Yrotation Xrotation
					End Site
					{
						OFFSET 0.000000 0.000000 0.000000
					}
				}
			}
		}
	}
	JOINT RightUpLeg
	{
		OFFSET -6.767048 -9.052170 -0.431982
		CHANNELS 3 Zrotation Yrotation Xrotation
		JOINT RightLeg
		{
			OFFSET -3.829005 -38.256897 -0.885003
			CHANNELS 3 Zrotation Yrotation Xrotation
			JOINT RightFoot
			{
				OFFSET 1.577377 -39.841461 -4.231180
				CHANNELS 3 Zrotation Yrotation Xrotation
				JOINT RightToe
				{
					OFFSET -2.537174 -4.814398 12.334795
					CHANNELS 3 Zrotation Yrotation Xrotation
					End Site
					{
						OFFSET 0.000000 0.000000 0.000000
					}
				}
			}
		}
	}
	JOINT Spine
	{
		OFFSET -0.253288 10.896323 -2.669631
		CHANNELS 3 Zrotation Yrotation Xrotation
		JOINT Spine1
		{
			OFFSET 0.548704 13.518043 0.109247
			CHANNELS 3 Zrotation Yrotation Xrotation
			JOINT Spine2
			{
				OFFSET 0.145701 5.292222 2.542457
				CHANNELS 3 Zrotation Yrotation Xrotation
				JOINT Neck
				{
					OFFSET -0.277840 21.387037 -4.285703
					CHANNELS 3 Zrotation Yrotation Xrotation
					JOINT Head
					{
						OFFSET 0.515184 6.496960 5.134897
						CHANNELS 3 Zrotation Yrotation Xrotation
						End Site
						{
							OFFSET 0.000000 0.000000 0.000000
						}
					}
				}
				JOINT LeftShoulder
				{
					OFFSET 7.884473 12.174932 -3.408961
					CHANNELS 3 Zrotation Yrotation Xrotation
					JOINT LeftArm
					{
						OFFSET 9.097692 3.046888 -0.886815
						CHANNELS 3 Zrotation Yrotation Xrotation
						JOINT LeftForeArm
						{
							OFFSET 25.961220 -1.277207 -2.745643
							CHANNELS 3 Zrotation Yrotation Xrotation
							JOINT LeftHand
							{
								OFFSET 24.923361 0.898606 -0.117091
								CHANNELS 3 Zrotation Yrotation Xrotation
								End Site
								{
									OFFSET 0.000000 0.000000 0.000000
								}
							}
						}
					}
				}
				JOINT RightShoulder
				{
					OFFSET -8.175920 11.883285 -3.861528
					CHANNELS 3 Zrotation Yrotation Xrotation
					JOINT RightArm
					{
						OFFSET -9.601238 3.255117 -0.914307
						CHANNELS 3 Zrotation Yrotation Xrotation
						JOINT RightForeArm
						{
							OFFSET -25.374195 -1.332924 -2.140099
							CHANNELS 3 Zrotation Yrotation Xrotation
							JOINT RightHand
							{
								OFFSET -25.529810 0.777228 -0.555919
								CHANNELS 3 Zrotation Yrotation Xrotation
								End Site
								{
									OFFSET 0.000000 0.000000 0.000000
								}
							}
						}
					}
				}
			}
		}
	}
}
MOTION
Frames: 6
Frame Time: 0.033333
-0.772725 147.666595 92.058319 174.978443 -0.745546 86.915175 -3.997113 -2.008108 -21.176049 1.204758 4.730495 -0.595619 -7.441980 3.704064 2.028075 nan nan nan 1.253644 -6.242302 20.952500 -0.582500 5.556251 -4.819367 6.743386 6.536576 -6.628783 nan nan nan 4.830154 7.570145 10.332634 -1.953255 -1.428444 2.358478 -0.777998 3.358586 0.839329 -2.309267 -4.698918 0.034271 3.984897 -5.092277 -5.714563 -20.892186 9.774042 -0.879321 -67.831309 -0.343037 9.236647 14.027566 -29.522779 -11.768705 3.929083 -14.832323 -35.758399 14.691673 0.342927 -0.716305 56.477548 16.373725 12.905477 -4.606828 37.011823 -0.455489 3.125337 12.334130 -20.089530 
-0.815986 148.474823 91.882614 174.913867 -0.771698 86.912631 -4.067788 -2.286313 -21.224648 1.249132 4.940511 -0.056968 -7.384142 3.803169 1.999408 nan nan nan 1.099931 -6.362729 21.607544 -0.673077 5.629034 -4.961733 6.758128 6.586484 -6.838943 nan nan nan 4.748850 7.741163 10.077321 -1.920222 -1.525306 2.507292 -0.737647 3.352699 0.856018 -2.284535 -4.697649 0.186495 3.971356 -5.010182 -5.837549 -20.791686 9.761449 -0.836473 -67.989444 -0.259020 9.408545 13.938895 -29.444839 -11.683633 3.918204 -14.643689 -36.170342 14.636682 0.281060 -0.711847 56.634133 16.298805 13.062751 -4.376914 37.109245 -0.267150 3.009714 12.277784 -20.348106 
-0.845746 149.293365 91.703224 174.856504 -0.753880 86.886988 -4.036672 -2.497852 -21.375816 1.230448 5.118629 0.843358 -7.358561 3.847123 2.252051 nan nan nan 1.007136 -6.475475 22.264169 -0.772387 5.695104 -5.088831 6.774361 6.647210 -6.936936 nan nan nan 4.672141 7.878056 9.861932 -1.846157 -1.602551 2.608403 -0.733487 3.406887 0.885684 -2.286243 -4.688121 0.295169 4.035093 -5.026727 -5.827623 -20.690481 9.771870 -0.797986 -68.145920 -0.217909 9.471046 13.871161 -29.315559 -11.495702 3.709644 -14.448618 -36.238407 14.661641 0.168036 -0.751956 56.866521 16.164256 13.175290 -4.375227 37.139931 -0.126586 3.318473 12.206569 -20.546504 
-0.873370 150.140900 91.524185 174.667743 -0.794873 87.002697 -4.025951 -2.674372 -21.618217 1.246084 5.340865 1.725123 -7.168479 3.860667 3.073755 nan nan nan 0.854666 -6.458042 22.721252 -0.856610 5.817742 -5.137918 6.726354 6.697284 -6.939349 nan nan nan 4.501416 8.033151 9.418806 -1.765920 -1.619946 2.877044 -0.771827 3.458626 0.762940 -2.331574 -4.704399 0.659878 4.162645 -4.854336 -6.101811 -20.633575 9.801231 -0.662984 -68.221647 -0.115778 9.537876 13.780234 -29.232768 -11.022504 3.565927 -14.133429 -36.040592 14.727810 0.154495 -0.583573 57.113051 16.077927 13.273220 -4.657740 37.156052 -0.020746 3.595938 12.080068 -20.589506 
-0.904777 151.009018 91.353539 174.464466 -0.948692 87.286692 -4.108688 -2.929415 -21.914622 1.274267 5.717072 2.410431 -6.990644 3.886447 4.208755 nan nan nan 0.615087 -6.427153 22.984948 -0.959782 5.867901 -5.145760 6.703584 6.699069 -7.001353 nan nan nan 4.169860 8.219038 8.812708 -1.691823 -1.642356 3.115798 -0.748339 3.447191 0.582334 -2.372246 -4.788621 1.118536 4.242709 -4.737736 -6.463470 -20.746786 9.993036 -0.523907 -68.149047 0.015755 9.648827 13.742010 -29.178148 -10.803807 3.646064 -13.827074 -35.998312 14.932340 0.034556 -0.419246 57.064742 15.990465 13.456278 -4.536430 37.275517 0.370098 3.632452 11.963463 -20.623583 
-0.920661 151.853806 91.204132 174.335400 -1.102826 87.531422 -4.182090 -3.305224 -22.122916 1.327001 6.194056 2.922995 -6.979119 4.034896 5.256696 nan nan nan 0.423297 -6.365951 23.209999 -1.046952 5.820668 -5.042700 6.808687 6.674762 -7.080844 nan nan nan 3.856743 8.384774 8.311834 -1.659704 -1.688231 3.254929 -0.734933 3.465496 0.465986 -2.350749 -4.737276 1.494927 4.328352 -4.666523 -6.718283 -20.821651 10.239078 -0.497316 -68.099144 0.109337 9.778565 13.755462 -29.059265 -10.782886 3.508563 -13.769193 -35.998163 15.159775 -0.195938 -0.292066 57.121528 15.923763 13.604915 -4.346017 37.290037 0.702828 3.814805 11.934483 -20.595341 
